<mxfile host="app.diagrams.net" modified="2022-11-07T10:37:11.748Z" agent="5.0 (Windows NT 10.0; Win64; x64) AppleWebKit/537.36 (KHTML, like Gecko) Chrome/107.0.0.0 Safari/537.36" etag="aWXeqsclcxxO1Mpjqwm6" version="20.4.0" type="github" pages="2">
  <diagram name="Niet ideaal" id="j1g4LOnBbL9r3tkUBIQZ">
    <mxGraphModel dx="1550" dy="1652" grid="1" gridSize="10" guides="1" tooltips="1" connect="1" arrows="1" fold="1" page="1" pageScale="1" pageWidth="1169" pageHeight="827" math="0" shadow="0">
      <root>
        <mxCell id="5WM9xpl87PC5f-L8cE69-0" />
        <mxCell id="5WM9xpl87PC5f-L8cE69-1" parent="5WM9xpl87PC5f-L8cE69-0" />
        <mxCell id="5WM9xpl87PC5f-L8cE69-2" value="Liander" style="swimlane;" vertex="1" parent="5WM9xpl87PC5f-L8cE69-1">
          <mxGeometry x="140" y="610" width="200" height="200" as="geometry" />
        </mxCell>
        <mxCell id="5WM9xpl87PC5f-L8cE69-3" value="SAP" style="shape=cylinder3;whiteSpace=wrap;html=1;boundedLbl=1;backgroundOutline=1;size=15;" vertex="1" parent="5WM9xpl87PC5f-L8cE69-2">
          <mxGeometry x="20" y="30" width="60" height="80" as="geometry" />
        </mxCell>
        <mxCell id="5WM9xpl87PC5f-L8cE69-4" value="NBR" style="shape=cylinder3;whiteSpace=wrap;html=1;boundedLbl=1;backgroundOutline=1;size=15;" vertex="1" parent="5WM9xpl87PC5f-L8cE69-2">
          <mxGeometry x="120" y="30" width="60" height="80" as="geometry" />
        </mxCell>
        <mxCell id="5WM9xpl87PC5f-L8cE69-5" value="NRG" style="shape=cylinder3;whiteSpace=wrap;html=1;boundedLbl=1;backgroundOutline=1;size=15;" vertex="1" parent="5WM9xpl87PC5f-L8cE69-2">
          <mxGeometry x="67" y="115" width="60" height="80" as="geometry" />
        </mxCell>
        <mxCell id="5WM9xpl87PC5f-L8cE69-6" value="Reddyn Database" style="swimlane;" vertex="1" parent="5WM9xpl87PC5f-L8cE69-1">
          <mxGeometry x="15" y="130" width="1140" height="460" as="geometry" />
        </mxCell>
        <mxCell id="5WM9xpl87PC5f-L8cE69-7" value="Resultaten" style="shape=cylinder3;whiteSpace=wrap;html=1;boundedLbl=1;backgroundOutline=1;size=15;" vertex="1" parent="5WM9xpl87PC5f-L8cE69-6">
          <mxGeometry x="920" y="170" width="60" height="80" as="geometry" />
        </mxCell>
        <mxCell id="5WM9xpl87PC5f-L8cE69-8" value="Storing en onderhoud data" style="swimlane;" vertex="1" parent="5WM9xpl87PC5f-L8cE69-6">
          <mxGeometry x="615" y="90" width="510" height="350" as="geometry" />
        </mxCell>
        <mxCell id="5WM9xpl87PC5f-L8cE69-9" value="Checklijsten" style="shape=cylinder3;whiteSpace=wrap;html=1;boundedLbl=1;backgroundOutline=1;size=15;" vertex="1" parent="5WM9xpl87PC5f-L8cE69-8">
          <mxGeometry x="60" y="80" width="70" height="90" as="geometry" />
        </mxCell>
        <mxCell id="5WM9xpl87PC5f-L8cE69-10" value="&lt;span style=&quot;font-weight: normal;&quot;&gt;Orders&lt;/span&gt;" style="shape=cylinder3;whiteSpace=wrap;html=1;boundedLbl=1;backgroundOutline=1;size=15;fontStyle=1" vertex="1" parent="5WM9xpl87PC5f-L8cE69-8">
          <mxGeometry x="225" y="80" width="60" height="80" as="geometry" />
        </mxCell>
        <mxCell id="5WM9xpl87PC5f-L8cE69-11" value="Vrije assets" style="shape=cylinder3;whiteSpace=wrap;html=1;boundedLbl=1;backgroundOutline=1;size=15;" vertex="1" parent="5WM9xpl87PC5f-L8cE69-6">
          <mxGeometry x="205" y="190" width="60" height="80" as="geometry" />
        </mxCell>
        <mxCell id="5WM9xpl87PC5f-L8cE69-12" value="TenneT" style="shape=cylinder3;whiteSpace=wrap;html=1;boundedLbl=1;backgroundOutline=1;size=15;" vertex="1" parent="5WM9xpl87PC5f-L8cE69-1">
          <mxGeometry x="410" y="670" width="60" height="80" as="geometry" />
        </mxCell>
        <mxCell id="rgsLT4Bi7w-7P516jc_T-0" value="Cache laag" style="rounded=0;whiteSpace=wrap;html=1;" vertex="1" parent="5WM9xpl87PC5f-L8cE69-1">
          <mxGeometry x="15" y="-40" width="1145" height="140" as="geometry" />
        </mxCell>
      </root>
    </mxGraphModel>
  </diagram>
  <diagram id="lik2ZpKi4KlDmyK377lH" name="V1">
    <mxGraphModel dx="1550" dy="1652" grid="1" gridSize="10" guides="1" tooltips="1" connect="1" arrows="1" fold="1" page="1" pageScale="1" pageWidth="1169" pageHeight="827" math="0" shadow="0">
      <root>
        <mxCell id="0" />
        <mxCell id="1" parent="0" />
        <mxCell id="NwM4DcF1UAjrXOBzsf48-3" style="edgeStyle=orthogonalEdgeStyle;rounded=0;orthogonalLoop=1;jettySize=auto;html=1;exitX=0.5;exitY=0;exitDx=0;exitDy=0;" edge="1" parent="1" source="_5LgtKsOdZagm4WOapnU-9" target="NwM4DcF1UAjrXOBzsf48-1">
          <mxGeometry relative="1" as="geometry" />
        </mxCell>
        <mxCell id="_5LgtKsOdZagm4WOapnU-9" value="Liander" style="swimlane;" vertex="1" parent="1">
          <mxGeometry x="130" y="413" width="200" height="200" as="geometry" />
        </mxCell>
        <mxCell id="_5LgtKsOdZagm4WOapnU-4" value="SAP" style="shape=cylinder3;whiteSpace=wrap;html=1;boundedLbl=1;backgroundOutline=1;size=15;" vertex="1" parent="_5LgtKsOdZagm4WOapnU-9">
          <mxGeometry x="20" y="30" width="60" height="80" as="geometry" />
        </mxCell>
        <mxCell id="_5LgtKsOdZagm4WOapnU-10" value="NBR" style="shape=cylinder3;whiteSpace=wrap;html=1;boundedLbl=1;backgroundOutline=1;size=15;" vertex="1" parent="_5LgtKsOdZagm4WOapnU-9">
          <mxGeometry x="120" y="30" width="60" height="80" as="geometry" />
        </mxCell>
        <mxCell id="_5LgtKsOdZagm4WOapnU-11" value="NRG" style="shape=cylinder3;whiteSpace=wrap;html=1;boundedLbl=1;backgroundOutline=1;size=15;" vertex="1" parent="_5LgtKsOdZagm4WOapnU-9">
          <mxGeometry x="67" y="115" width="60" height="80" as="geometry" />
        </mxCell>
        <mxCell id="NwM4DcF1UAjrXOBzsf48-5" style="edgeStyle=orthogonalEdgeStyle;rounded=0;orthogonalLoop=1;jettySize=auto;html=1;exitX=0.5;exitY=0;exitDx=0;exitDy=0;entryX=0.5;entryY=1;entryDx=0;entryDy=0;" edge="1" parent="1" source="_5LgtKsOdZagm4WOapnU-21" target="NwM4DcF1UAjrXOBzsf48-1">
          <mxGeometry relative="1" as="geometry" />
        </mxCell>
        <mxCell id="_5LgtKsOdZagm4WOapnU-21" value="Reddyn Database" style="swimlane;" vertex="1" parent="1">
          <mxGeometry x="370" y="413" width="340" height="140" as="geometry" />
        </mxCell>
        <mxCell id="_5LgtKsOdZagm4WOapnU-22" value="Vrije assets" style="shape=cylinder3;whiteSpace=wrap;html=1;boundedLbl=1;backgroundOutline=1;size=15;" vertex="1" parent="_5LgtKsOdZagm4WOapnU-21">
          <mxGeometry x="140" y="40" width="60" height="80" as="geometry" />
        </mxCell>
        <mxCell id="NwM4DcF1UAjrXOBzsf48-2" style="edgeStyle=orthogonalEdgeStyle;rounded=0;orthogonalLoop=1;jettySize=auto;html=1;exitX=0.5;exitY=0;exitDx=0;exitDy=0;exitPerimeter=0;entryX=0.047;entryY=0.997;entryDx=0;entryDy=0;entryPerimeter=0;" edge="1" parent="1" source="_5LgtKsOdZagm4WOapnU-3" target="NwM4DcF1UAjrXOBzsf48-1">
          <mxGeometry relative="1" as="geometry" />
        </mxCell>
        <mxCell id="_5LgtKsOdZagm4WOapnU-3" value="TenneT" style="shape=cylinder3;whiteSpace=wrap;html=1;boundedLbl=1;backgroundOutline=1;size=15;" vertex="1" parent="1">
          <mxGeometry x="30" y="473" width="60" height="80" as="geometry" />
        </mxCell>
        <mxCell id="NwM4DcF1UAjrXOBzsf48-6" style="edgeStyle=orthogonalEdgeStyle;rounded=0;orthogonalLoop=1;jettySize=auto;html=1;exitX=0.5;exitY=0;exitDx=0;exitDy=0;" edge="1" parent="1" source="_5LgtKsOdZagm4WOapnU-13">
          <mxGeometry relative="1" as="geometry">
            <mxPoint x="640" y="350" as="targetPoint" />
          </mxGeometry>
        </mxCell>
        <mxCell id="_5LgtKsOdZagm4WOapnU-13" value="SAP Storing en onderhoud data" style="swimlane;" vertex="1" parent="1">
          <mxGeometry x="740" y="413" width="510" height="350" as="geometry" />
        </mxCell>
        <mxCell id="_5LgtKsOdZagm4WOapnU-19" value="Checklijsten" style="shape=cylinder3;whiteSpace=wrap;html=1;boundedLbl=1;backgroundOutline=1;size=15;" vertex="1" parent="_5LgtKsOdZagm4WOapnU-13">
          <mxGeometry x="73" y="164" width="70" height="90" as="geometry" />
        </mxCell>
        <mxCell id="_5LgtKsOdZagm4WOapnU-20" value="&lt;span style=&quot;font-weight: normal;&quot;&gt;Orders&lt;/span&gt;" style="shape=cylinder3;whiteSpace=wrap;html=1;boundedLbl=1;backgroundOutline=1;size=15;fontStyle=1" vertex="1" parent="_5LgtKsOdZagm4WOapnU-13">
          <mxGeometry x="200" y="80" width="60" height="80" as="geometry" />
        </mxCell>
        <mxCell id="_5LgtKsOdZagm4WOapnU-15" value="Resultaten" style="shape=cylinder3;whiteSpace=wrap;html=1;boundedLbl=1;backgroundOutline=1;size=15;" vertex="1" parent="_5LgtKsOdZagm4WOapnU-13">
          <mxGeometry x="330" y="174" width="60" height="80" as="geometry" />
        </mxCell>
        <mxCell id="BeQmz6GaIfg1BhTtczLm-15" style="edgeStyle=orthogonalEdgeStyle;rounded=0;orthogonalLoop=1;jettySize=auto;html=1;exitX=0.5;exitY=0;exitDx=0;exitDy=0;entryX=0.5;entryY=1;entryDx=0;entryDy=0;" edge="1" parent="1" source="NwM4DcF1UAjrXOBzsf48-1" target="BeQmz6GaIfg1BhTtczLm-12">
          <mxGeometry relative="1" as="geometry" />
        </mxCell>
        <mxCell id="NwM4DcF1UAjrXOBzsf48-1" value="Cache laag" style="rounded=0;whiteSpace=wrap;html=1;" vertex="1" parent="1">
          <mxGeometry x="30" y="210" width="1220" height="140" as="geometry" />
        </mxCell>
        <mxCell id="BeQmz6GaIfg1BhTtczLm-1" value="Asset view" style="rounded=1;whiteSpace=wrap;html=1;" vertex="1" parent="1">
          <mxGeometry x="180" y="250" width="120" height="60" as="geometry" />
        </mxCell>
        <mxCell id="BeQmz6GaIfg1BhTtczLm-2" value="Checklijsten laag" style="rounded=1;whiteSpace=wrap;html=1;" vertex="1" parent="1">
          <mxGeometry x="380" y="250" width="120" height="60" as="geometry" />
        </mxCell>
        <mxCell id="BeQmz6GaIfg1BhTtczLm-13" style="edgeStyle=orthogonalEdgeStyle;rounded=0;orthogonalLoop=1;jettySize=auto;html=1;entryX=0.701;entryY=0.017;entryDx=0;entryDy=0;entryPerimeter=0;" edge="1" parent="1" source="BeQmz6GaIfg1BhTtczLm-4" target="BeQmz6GaIfg1BhTtczLm-12">
          <mxGeometry relative="1" as="geometry" />
        </mxCell>
        <mxCell id="BeQmz6GaIfg1BhTtczLm-4" value="Veldwerker" style="rounded=0;whiteSpace=wrap;html=1;" vertex="1" parent="1">
          <mxGeometry x="870" y="-40" width="120" height="60" as="geometry" />
        </mxCell>
        <mxCell id="BeQmz6GaIfg1BhTtczLm-9" value="Order" style="rounded=1;whiteSpace=wrap;html=1;" vertex="1" parent="1">
          <mxGeometry x="730" y="250" width="120" height="60" as="geometry" />
        </mxCell>
        <mxCell id="BeQmz6GaIfg1BhTtczLm-12" value="API" style="rounded=0;whiteSpace=wrap;html=1;" vertex="1" parent="1">
          <mxGeometry x="30" y="100" width="1220" height="90" as="geometry" />
        </mxCell>
        <mxCell id="BeQmz6GaIfg1BhTtczLm-14" value="Asset endpoint" style="rounded=1;whiteSpace=wrap;html=1;" vertex="1" parent="1">
          <mxGeometry x="180" y="115" width="120" height="60" as="geometry" />
        </mxCell>
      </root>
    </mxGraphModel>
  </diagram>
</mxfile>
